<mxfile host="app.diagrams.net" modified="2023-12-05T02:28:41.515Z" agent="Mozilla/5.0 (Macintosh; Intel Mac OS X 10.15; rv:120.0) Gecko/20100101 Firefox/120.0" etag="JfoxPN9XIruXiaiB_8Ef" version="22.1.5" type="device">
  <diagram name="페이지-1" id="PiOmPO5_wjYvm2MMiXly">
    <mxGraphModel dx="1363" dy="877" grid="1" gridSize="10" guides="1" tooltips="1" connect="1" arrows="1" fold="1" page="1" pageScale="1" pageWidth="850" pageHeight="1100" math="0" shadow="0">
      <root>
        <mxCell id="0" />
        <mxCell id="1" parent="0" />
        <mxCell id="vMma3rcSWqrkVeXqSeF3-1" value="Bike" style="swimlane;fontStyle=1;align=center;verticalAlign=top;childLayout=stackLayout;horizontal=1;startSize=26;horizontalStack=0;resizeParent=1;resizeParentMax=0;resizeLast=0;collapsible=1;marginBottom=0;whiteSpace=wrap;html=1;" parent="1" vertex="1">
          <mxGeometry x="135" y="110" width="290" height="230" as="geometry" />
        </mxCell>
        <mxCell id="vMma3rcSWqrkVeXqSeF3-2" value="&lt;div&gt;- bikeID: String&lt;br&gt;&lt;/div&gt;&lt;div&gt;- specDesc: String&lt;/div&gt;&lt;div&gt;- price: double&lt;br&gt;&lt;/div&gt;" style="text;strokeColor=none;fillColor=none;align=left;verticalAlign=top;spacingLeft=4;spacingRight=4;overflow=hidden;rotatable=0;points=[[0,0.5],[1,0.5]];portConstraint=eastwest;whiteSpace=wrap;html=1;" parent="vMma3rcSWqrkVeXqSeF3-1" vertex="1">
          <mxGeometry y="26" width="290" height="64" as="geometry" />
        </mxCell>
        <mxCell id="vMma3rcSWqrkVeXqSeF3-3" value="" style="line;strokeWidth=1;fillColor=none;align=left;verticalAlign=middle;spacingTop=-1;spacingLeft=3;spacingRight=3;rotatable=0;labelPosition=right;points=[];portConstraint=eastwest;strokeColor=inherit;" parent="vMma3rcSWqrkVeXqSeF3-1" vertex="1">
          <mxGeometry y="90" width="290" height="8" as="geometry" />
        </mxCell>
        <mxCell id="vMma3rcSWqrkVeXqSeF3-4" value="&lt;div&gt;+Bike(bikeID:String,specDesc:String,price:double)&lt;/div&gt;&lt;div&gt;+getBikeID():String&lt;/div&gt;&lt;div&gt;+setBikeID(bikeID:String):void&lt;/div&gt;&lt;div&gt;+getSpecDesc():String&lt;/div&gt;&lt;div&gt;+setSpecDesc(specDesc:String):void&lt;/div&gt;&lt;div&gt;+getPrice():double&lt;/div&gt;&lt;div&gt;+setPrice(price:double):void&lt;/div&gt;&lt;div&gt;+toString():String&lt;br&gt;&lt;/div&gt;" style="text;strokeColor=none;fillColor=none;align=left;verticalAlign=top;spacingLeft=4;spacingRight=4;overflow=hidden;rotatable=0;points=[[0,0.5],[1,0.5]];portConstraint=eastwest;whiteSpace=wrap;html=1;" parent="vMma3rcSWqrkVeXqSeF3-1" vertex="1">
          <mxGeometry y="98" width="290" height="132" as="geometry" />
        </mxCell>
        <mxCell id="vMma3rcSWqrkVeXqSeF3-5" value="Sports Bike" style="swimlane;fontStyle=1;align=center;verticalAlign=top;childLayout=stackLayout;horizontal=1;startSize=26;horizontalStack=0;resizeParent=1;resizeParentMax=0;resizeLast=0;collapsible=1;marginBottom=0;whiteSpace=wrap;html=1;" parent="1" vertex="1">
          <mxGeometry x="80" y="470" width="410" height="130" as="geometry" />
        </mxCell>
        <mxCell id="vMma3rcSWqrkVeXqSeF3-6" value="+ specType: String" style="text;strokeColor=none;fillColor=none;align=left;verticalAlign=top;spacingLeft=4;spacingRight=4;overflow=hidden;rotatable=0;points=[[0,0.5],[1,0.5]];portConstraint=eastwest;whiteSpace=wrap;html=1;" parent="vMma3rcSWqrkVeXqSeF3-5" vertex="1">
          <mxGeometry y="26" width="410" height="26" as="geometry" />
        </mxCell>
        <mxCell id="vMma3rcSWqrkVeXqSeF3-7" value="" style="line;strokeWidth=1;fillColor=none;align=left;verticalAlign=middle;spacingTop=-1;spacingLeft=3;spacingRight=3;rotatable=0;labelPosition=right;points=[];portConstraint=eastwest;strokeColor=inherit;" parent="vMma3rcSWqrkVeXqSeF3-5" vertex="1">
          <mxGeometry y="52" width="410" height="8" as="geometry" />
        </mxCell>
        <mxCell id="vMma3rcSWqrkVeXqSeF3-8" value="&lt;div&gt;+SportsBike(bikeID:String,specDesc:String,price:double,specType:String)&lt;/div&gt;&lt;div&gt;+getSpecType():String&lt;/div&gt;&lt;div&gt;+setSpecType(specType:String):void&lt;br&gt;&lt;/div&gt;&lt;div&gt;+toString():String&lt;br&gt;&lt;/div&gt;" style="text;strokeColor=none;fillColor=none;align=left;verticalAlign=top;spacingLeft=4;spacingRight=4;overflow=hidden;rotatable=0;points=[[0,0.5],[1,0.5]];portConstraint=eastwest;whiteSpace=wrap;html=1;" parent="vMma3rcSWqrkVeXqSeF3-5" vertex="1">
          <mxGeometry y="60" width="410" height="70" as="geometry" />
        </mxCell>
        <mxCell id="vMma3rcSWqrkVeXqSeF3-14" value="Customer" style="swimlane;fontStyle=1;align=center;verticalAlign=top;childLayout=stackLayout;horizontal=1;startSize=26;horizontalStack=0;resizeParent=1;resizeParentMax=0;resizeLast=0;collapsible=1;marginBottom=0;whiteSpace=wrap;html=1;" parent="1" vertex="1">
          <mxGeometry x="680" y="100" width="390" height="260" as="geometry" />
        </mxCell>
        <mxCell id="vMma3rcSWqrkVeXqSeF3-15" value="&lt;div&gt;- name: String&lt;/div&gt;&lt;div&gt;- address: String&lt;/div&gt;&lt;div&gt;- orderNum: int&lt;/div&gt;- bikeQuantity: int" style="text;strokeColor=none;fillColor=none;align=left;verticalAlign=top;spacingLeft=4;spacingRight=4;overflow=hidden;rotatable=0;points=[[0,0.5],[1,0.5]];portConstraint=eastwest;whiteSpace=wrap;html=1;" parent="vMma3rcSWqrkVeXqSeF3-14" vertex="1">
          <mxGeometry y="26" width="390" height="74" as="geometry" />
        </mxCell>
        <mxCell id="vMma3rcSWqrkVeXqSeF3-16" value="" style="line;strokeWidth=1;fillColor=none;align=left;verticalAlign=middle;spacingTop=-1;spacingLeft=3;spacingRight=3;rotatable=0;labelPosition=right;points=[];portConstraint=eastwest;strokeColor=inherit;" parent="vMma3rcSWqrkVeXqSeF3-14" vertex="1">
          <mxGeometry y="100" width="390" height="8" as="geometry" />
        </mxCell>
        <mxCell id="vMma3rcSWqrkVeXqSeF3-17" value="&lt;div&gt;+Customer(name:String,address:String,orderNum:int,bikeQuantity:int)&lt;/div&gt;&lt;div&gt;+getName():String&lt;br&gt;&lt;/div&gt;&lt;div&gt;+setName(name:String):void&lt;/div&gt;&lt;div&gt;+getAddress():String&lt;/div&gt;&lt;div&gt;+setAddress(address:String):void&lt;/div&gt;&lt;div&gt;+getOrderNum():int&lt;/div&gt;&lt;div&gt;+setOrderNum(orderNum:int):void&lt;br&gt;&lt;/div&gt;&lt;div&gt;+getBikeQuantity():int&lt;/div&gt;&lt;div&gt;+setBikeQuantity(bikeQuantity:int):void&lt;/div&gt;&lt;div&gt;+toString():String&lt;br&gt;&lt;/div&gt;" style="text;strokeColor=none;fillColor=none;align=left;verticalAlign=top;spacingLeft=4;spacingRight=4;overflow=hidden;rotatable=0;points=[[0,0.5],[1,0.5]];portConstraint=eastwest;whiteSpace=wrap;html=1;" parent="vMma3rcSWqrkVeXqSeF3-14" vertex="1">
          <mxGeometry y="108" width="390" height="152" as="geometry" />
        </mxCell>
        <mxCell id="vMma3rcSWqrkVeXqSeF3-22" value="Extends" style="endArrow=block;endSize=16;endFill=0;html=1;rounded=0;exitX=0.5;exitY=0;exitDx=0;exitDy=0;entryX=0.517;entryY=1;entryDx=0;entryDy=0;entryPerimeter=0;" parent="1" source="vMma3rcSWqrkVeXqSeF3-5" target="vMma3rcSWqrkVeXqSeF3-4" edge="1">
          <mxGeometry width="160" relative="1" as="geometry">
            <mxPoint x="420" y="280" as="sourcePoint" />
            <mxPoint x="580" y="280" as="targetPoint" />
          </mxGeometry>
        </mxCell>
        <mxCell id="YZgnxjbHsY1JKR6hklBt-3" value="" style="endArrow=none;html=1;rounded=0;exitX=0.992;exitY=0.554;exitDx=0;exitDy=0;exitPerimeter=0;" edge="1" parent="1" source="YZgnxjbHsY1JKR6hklBt-4">
          <mxGeometry width="50" height="50" relative="1" as="geometry">
            <mxPoint x="440" y="330" as="sourcePoint" />
            <mxPoint x="680" y="204" as="targetPoint" />
          </mxGeometry>
        </mxCell>
        <mxCell id="YZgnxjbHsY1JKR6hklBt-5" value="" style="endArrow=none;html=1;rounded=0;exitX=0.992;exitY=0.554;exitDx=0;exitDy=0;exitPerimeter=0;" edge="1" parent="1" source="vMma3rcSWqrkVeXqSeF3-3" target="YZgnxjbHsY1JKR6hklBt-4">
          <mxGeometry width="50" height="50" relative="1" as="geometry">
            <mxPoint x="423" y="204" as="sourcePoint" />
            <mxPoint x="680" y="204" as="targetPoint" />
          </mxGeometry>
        </mxCell>
        <mxCell id="YZgnxjbHsY1JKR6hklBt-4" value="orders a" style="text;html=1;align=center;verticalAlign=middle;resizable=0;points=[];autosize=1;strokeColor=none;fillColor=none;" vertex="1" parent="1">
          <mxGeometry x="530" y="189" width="70" height="30" as="geometry" />
        </mxCell>
      </root>
    </mxGraphModel>
  </diagram>
</mxfile>
